<svg xmlns="http://www.w3.org/2000/svg" viewBox="0 0 120 120"><path d="M49 8L73 28L106 21L101 49L118 61L99 77L112 99L84 95L76 116L57 96L32 112L35 85L13 90L23 66L4 56L29 44L13 23L44 28Z" fill="#20221f" transform="translate(1 3)"/><path d="M49 8L73 28L106 21L101 49L118 61L99 77L112 99L84 95L76 116L57 96L32 112L35 85L13 90L23 66L4 56L29 44L13 23L44 28Z" fill="#B86AF2"/><ellipse cx="47" cy="53" rx="11" ry="15" fill="white"/><ellipse cx="76" cy="52" rx="11" ry="15" fill="white"/><ellipse cx="49" cy="55" rx="7" ry="11" fill="#171916"/><ellipse cx="78" cy="54" rx="7" ry="11" fill="#171916"/><path d="M48 77Q62 87 77 74" fill="none" stroke="#171916" stroke-width="3.5" stroke-linecap="round"/></svg>