<svg xmlns="http://www.w3.org/2000/svg" viewBox="0 0 160 190" class="svg-pal pal-muse" role="img" aria-label="Pip, animated character"><style>
.svg-pal .pal-body{transform-origin:60px 65px;animation:pal-breathe 6s ease-in-out infinite;animation-delay:var(--pal-delay,0s)}
.svg-pal .pal-eyes{transform-origin:60px 53px;animation:pal-blink 11s ease-in-out infinite;animation-delay:var(--pal-delay,0s)}
.svg-pal .pal-pupils{animation:pal-look 14s ease-in-out infinite;animation-delay:var(--pal-delay,0s)}
.svg-pal .pal-smile{transform-origin:62px 77px;animation:pal-smile 14s ease-in-out infinite;animation-delay:var(--pal-delay,0s)}
.svg-pal .pal-grin{opacity:0;animation:pal-grin 14s ease-in-out infinite;animation-delay:var(--pal-delay,0s)}
.svg-pal .pal-cheeks{opacity:0;animation:pal-cheeks 14s ease-in-out infinite;animation-delay:var(--pal-delay,0s)}
@keyframes pal-breathe{0%,100%{transform:translateY(0) rotate(-1deg)}50%{transform:translateY(-2px) rotate(1deg)}}
@keyframes pal-look{0%,7%,94%,100%{transform:translate(0,0)}12%,23%{transform:translate(3.5px,0)}28%,39%{transform:translate(-3.5px,0)}44%,55%{transform:translate(0,-3.5px)}60%,70%{transform:translate(0,3.5px)}76%,89%{transform:translate(0,0)}}
@keyframes pal-blink{0%,19%,21%,61%,63%,100%{transform:scaleY(1)}20%,62%{transform:scaleY(.08)}}
@keyframes pal-smile{0%,70%,96%,100%{opacity:1;transform:scaleY(1)}77%,89%{opacity:0;transform:scaleY(1.3)}}
@keyframes pal-grin{0%,70%,96%,100%{opacity:0}77%,89%{opacity:1}}
@keyframes pal-cheeks{0%,70%,96%,100%{opacity:0}77%,89%{opacity:.3}}
.svg-pal[data-state="thinking"] .pal-body{animation:pal-ponder 3s ease-in-out infinite}
.svg-pal[data-state="working"] .pal-body{animation:pal-work 1.6s ease-in-out infinite}
.svg-pal[data-state="success"] .pal-body{animation:pal-celebrate .6s ease-in-out 1}
.svg-pal[data-state="error"] .pal-body{animation:pal-shake .4s ease-in-out 1}
@keyframes pal-ponder{50%{transform:rotate(-5deg)}}
@keyframes pal-work{50%{transform:translateY(-3px) rotate(2deg)}}
@keyframes pal-celebrate{35%{transform:translateY(-7px) rotate(-4deg)}70%{transform:translateY(-2px) rotate(3deg)}}
@keyframes pal-shake{25%{transform:translateX(-3px)}75%{transform:translateX(3px)}}
.svg-pal.pal-muse .pal-body{transform-origin:80px 110px}
.svg-pal.pal-muse .pal-eyes,.svg-pal.pal-dots .pal-eyes{transform-box:fill-box;transform-origin:center}
.svg-pal.pal-muse .pal-smile{transform-box:fill-box;transform-origin:center}
.svg-pal .pal-prop{transform-origin:25px 110px;animation:pal-wave 6s ease-in-out infinite;animation-delay:var(--pal-delay,0s)}
@keyframes pal-wave{0%,60%,100%{transform:rotate(0)}70%,85%{transform:rotate(-8deg)}77%,92%{transform:rotate(4deg)}}
@media(prefers-reduced-motion:reduce){.svg-pal .pal-prop,.svg-pal .pal-body,.svg-pal .pal-eyes,.svg-pal .pal-pupils,.svg-pal .pal-smile,.svg-pal .pal-grin,.svg-pal .pal-cheeks{animation:none!important}}
</style><defs><radialGradient id="muse-pigeon-fur" cx="34%" cy="25%" r="80%"><stop offset="0" stop-color="white" stop-opacity=".42"/><stop offset=".38" stop-color="white" stop-opacity="0"/><stop offset="1" stop-color="#202137" stop-opacity=".25"/></radialGradient><linearGradient id="muse-pigeon-shade" x1="0" y1="0" x2=".9" y2="1"><stop stop-color="white" stop-opacity=".12"/><stop offset=".55" stop-color="white" stop-opacity="0"/><stop offset="1" stop-color="#1c2040" stop-opacity=".35"/></linearGradient><pattern id="muse-pigeon-fleece" width="120" height="120" patternUnits="userSpaceOnUse"><ellipse cx="0" cy="0" rx="0.22" ry="0.45" fill="#fff" opacity="0.07"/><ellipse cx="47" cy="31" rx="0.32" ry="0.45" fill="#fff" opacity="0.085"/><ellipse cx="94" cy="62" rx="0.42000000000000004" ry="0.45" fill="#fff" opacity="0.1"/><ellipse cx="21" cy="93" rx="0.22" ry="0.45" fill="#fff" opacity="0.115"/><ellipse cx="68" cy="4" rx="0.32" ry="0.45" fill="#fff" opacity="0.07"/><ellipse cx="115" cy="35" rx="0.42000000000000004" ry="0.45" fill="#fff" opacity="0.085"/><ellipse cx="42" cy="66" rx="0.22" ry="0.45" fill="#fff" opacity="0.1"/><ellipse cx="89" cy="97" rx="0.32" ry="0.45" fill="#fff" opacity="0.115"/><ellipse cx="16" cy="8" rx="0.42000000000000004" ry="0.45" fill="#fff" opacity="0.07"/><ellipse cx="63" cy="39" rx="0.22" ry="0.45" fill="#fff" opacity="0.085"/><ellipse cx="110" cy="70" rx="0.32" ry="0.45" fill="#fff" opacity="0.1"/><ellipse cx="37" cy="101" rx="0.42000000000000004" ry="0.45" fill="#fff" opacity="0.115"/><ellipse cx="84" cy="12" rx="0.22" ry="0.45" fill="#fff" opacity="0.07"/><ellipse cx="11" cy="43" rx="0.32" ry="0.45" fill="#fff" opacity="0.085"/><ellipse cx="58" cy="74" rx="0.42000000000000004" ry="0.45" fill="#fff" opacity="0.1"/><ellipse cx="105" cy="105" rx="0.22" ry="0.45" fill="#fff" opacity="0.115"/><ellipse cx="32" cy="16" rx="0.32" ry="0.45" fill="#fff" opacity="0.07"/><ellipse cx="79" cy="47" rx="0.42000000000000004" ry="0.45" fill="#fff" opacity="0.085"/><ellipse cx="6" cy="78" rx="0.22" ry="0.45" fill="#fff" opacity="0.1"/><ellipse cx="53" cy="109" rx="0.32" ry="0.45" fill="#fff" opacity="0.115"/><ellipse cx="100" cy="20" rx="0.42000000000000004" ry="0.45" fill="#fff" opacity="0.07"/><ellipse cx="27" cy="51" rx="0.22" ry="0.45" fill="#fff" opacity="0.085"/><ellipse cx="74" cy="82" rx="0.32" ry="0.45" fill="#fff" opacity="0.1"/><ellipse cx="1" cy="113" rx="0.42000000000000004" ry="0.45" fill="#fff" opacity="0.115"/><ellipse cx="48" cy="24" rx="0.22" ry="0.45" fill="#fff" opacity="0.07"/><ellipse cx="95" cy="55" rx="0.32" ry="0.45" fill="#fff" opacity="0.085"/><ellipse cx="22" cy="86" rx="0.42000000000000004" ry="0.45" fill="#fff" opacity="0.1"/><ellipse cx="69" cy="117" rx="0.22" ry="0.45" fill="#fff" opacity="0.115"/><ellipse cx="116" cy="28" rx="0.32" ry="0.45" fill="#fff" opacity="0.07"/><ellipse cx="43" cy="59" rx="0.42000000000000004" ry="0.45" fill="#fff" opacity="0.085"/><ellipse cx="90" cy="90" rx="0.22" ry="0.45" fill="#fff" opacity="0.1"/><ellipse cx="17" cy="1" rx="0.32" ry="0.45" fill="#fff" opacity="0.115"/><ellipse cx="64" cy="32" rx="0.42000000000000004" ry="0.45" fill="#fff" opacity="0.07"/><ellipse cx="111" cy="63" rx="0.22" ry="0.45" fill="#fff" opacity="0.085"/><ellipse cx="38" cy="94" rx="0.32" ry="0.45" fill="#fff" opacity="0.1"/><ellipse cx="85" cy="5" rx="0.42000000000000004" ry="0.45" fill="#fff" opacity="0.115"/><ellipse cx="12" cy="36" rx="0.22" ry="0.45" fill="#fff" opacity="0.07"/><ellipse cx="59" cy="67" rx="0.32" ry="0.45" fill="#fff" opacity="0.085"/><ellipse cx="106" cy="98" rx="0.42000000000000004" ry="0.45" fill="#fff" opacity="0.1"/><ellipse cx="33" cy="9" rx="0.22" ry="0.45" fill="#fff" opacity="0.115"/><ellipse cx="80" cy="40" rx="0.32" ry="0.45" fill="#fff" opacity="0.07"/><ellipse cx="7" cy="71" rx="0.42000000000000004" ry="0.45" fill="#fff" opacity="0.085"/><ellipse cx="54" cy="102" rx="0.22" ry="0.45" fill="#fff" opacity="0.1"/><ellipse cx="101" cy="13" rx="0.32" ry="0.45" fill="#fff" opacity="0.115"/><ellipse cx="28" cy="44" rx="0.42000000000000004" ry="0.45" fill="#fff" opacity="0.07"/><ellipse cx="75" cy="75" rx="0.22" ry="0.45" fill="#fff" opacity="0.085"/><ellipse cx="2" cy="106" rx="0.32" ry="0.45" fill="#fff" opacity="0.1"/><ellipse cx="49" cy="17" rx="0.42000000000000004" ry="0.45" fill="#fff" opacity="0.115"/><ellipse cx="96" cy="48" rx="0.22" ry="0.45" fill="#fff" opacity="0.07"/><ellipse cx="23" cy="79" rx="0.32" ry="0.45" fill="#fff" opacity="0.085"/><ellipse cx="70" cy="110" rx="0.42000000000000004" ry="0.45" fill="#fff" opacity="0.1"/><ellipse cx="117" cy="21" rx="0.22" ry="0.45" fill="#fff" opacity="0.115"/><ellipse cx="44" cy="52" rx="0.32" ry="0.45" fill="#fff" opacity="0.07"/><ellipse cx="91" cy="83" rx="0.42000000000000004" ry="0.45" fill="#fff" opacity="0.085"/><ellipse cx="18" cy="114" rx="0.22" ry="0.45" fill="#fff" opacity="0.1"/><ellipse cx="65" cy="25" rx="0.32" ry="0.45" fill="#fff" opacity="0.115"/><ellipse cx="112" cy="56" rx="0.42000000000000004" ry="0.45" fill="#fff" opacity="0.07"/><ellipse cx="39" cy="87" rx="0.22" ry="0.45" fill="#fff" opacity="0.085"/><ellipse cx="86" cy="118" rx="0.32" ry="0.45" fill="#fff" opacity="0.1"/><ellipse cx="13" cy="29" rx="0.42000000000000004" ry="0.45" fill="#fff" opacity="0.115"/><ellipse cx="60" cy="60" rx="0.22" ry="0.45" fill="#fff" opacity="0.07"/><ellipse cx="107" cy="91" rx="0.32" ry="0.45" fill="#fff" opacity="0.085"/><ellipse cx="34" cy="2" rx="0.42000000000000004" ry="0.45" fill="#fff" opacity="0.1"/><ellipse cx="81" cy="33" rx="0.22" ry="0.45" fill="#fff" opacity="0.115"/><ellipse cx="8" cy="64" rx="0.32" ry="0.45" fill="#fff" opacity="0.07"/><ellipse cx="55" cy="95" rx="0.42000000000000004" ry="0.45" fill="#fff" opacity="0.085"/><ellipse cx="102" cy="6" rx="0.22" ry="0.45" fill="#fff" opacity="0.1"/><ellipse cx="29" cy="37" rx="0.32" ry="0.45" fill="#fff" opacity="0.115"/><ellipse cx="76" cy="68" rx="0.42000000000000004" ry="0.45" fill="#fff" opacity="0.07"/><ellipse cx="3" cy="99" rx="0.22" ry="0.45" fill="#fff" opacity="0.085"/><ellipse cx="50" cy="10" rx="0.32" ry="0.45" fill="#fff" opacity="0.1"/><ellipse cx="97" cy="41" rx="0.42000000000000004" ry="0.45" fill="#fff" opacity="0.115"/><ellipse cx="24" cy="72" rx="0.22" ry="0.45" fill="#fff" opacity="0.07"/><ellipse cx="71" cy="103" rx="0.32" ry="0.45" fill="#fff" opacity="0.085"/><ellipse cx="118" cy="14" rx="0.42000000000000004" ry="0.45" fill="#fff" opacity="0.1"/><ellipse cx="45" cy="45" rx="0.22" ry="0.45" fill="#fff" opacity="0.115"/><ellipse cx="92" cy="76" rx="0.32" ry="0.45" fill="#fff" opacity="0.07"/><ellipse cx="19" cy="107" rx="0.42000000000000004" ry="0.45" fill="#fff" opacity="0.085"/><ellipse cx="66" cy="18" rx="0.22" ry="0.45" fill="#fff" opacity="0.1"/><ellipse cx="113" cy="49" rx="0.32" ry="0.45" fill="#fff" opacity="0.115"/><ellipse cx="40" cy="80" rx="0.42000000000000004" ry="0.45" fill="#fff" opacity="0.07"/><ellipse cx="87" cy="111" rx="0.22" ry="0.45" fill="#fff" opacity="0.085"/><ellipse cx="14" cy="22" rx="0.32" ry="0.45" fill="#fff" opacity="0.1"/><ellipse cx="61" cy="53" rx="0.42000000000000004" ry="0.45" fill="#fff" opacity="0.115"/><ellipse cx="108" cy="84" rx="0.22" ry="0.45" fill="#fff" opacity="0.07"/><ellipse cx="35" cy="115" rx="0.32" ry="0.45" fill="#fff" opacity="0.085"/><ellipse cx="82" cy="26" rx="0.42000000000000004" ry="0.45" fill="#fff" opacity="0.1"/><ellipse cx="9" cy="57" rx="0.22" ry="0.45" fill="#fff" opacity="0.115"/><ellipse cx="56" cy="88" rx="0.32" ry="0.45" fill="#fff" opacity="0.07"/><ellipse cx="103" cy="119" rx="0.42000000000000004" ry="0.45" fill="#fff" opacity="0.085"/><ellipse cx="30" cy="30" rx="0.22" ry="0.45" fill="#fff" opacity="0.1"/><ellipse cx="77" cy="61" rx="0.32" ry="0.45" fill="#fff" opacity="0.115"/><ellipse cx="4" cy="92" rx="0.42000000000000004" ry="0.45" fill="#fff" opacity="0.07"/><ellipse cx="51" cy="3" rx="0.22" ry="0.45" fill="#fff" opacity="0.085"/><ellipse cx="98" cy="34" rx="0.32" ry="0.45" fill="#fff" opacity="0.1"/><ellipse cx="25" cy="65" rx="0.42000000000000004" ry="0.45" fill="#fff" opacity="0.115"/><ellipse cx="72" cy="96" rx="0.22" ry="0.45" fill="#fff" opacity="0.07"/><ellipse cx="119" cy="7" rx="0.32" ry="0.45" fill="#fff" opacity="0.085"/><ellipse cx="46" cy="38" rx="0.42000000000000004" ry="0.45" fill="#fff" opacity="0.1"/><ellipse cx="93" cy="69" rx="0.22" ry="0.45" fill="#fff" opacity="0.115"/><ellipse cx="20" cy="100" rx="0.32" ry="0.45" fill="#fff" opacity="0.07"/><ellipse cx="67" cy="11" rx="0.42000000000000004" ry="0.45" fill="#fff" opacity="0.085"/><ellipse cx="114" cy="42" rx="0.22" ry="0.45" fill="#fff" opacity="0.1"/><ellipse cx="41" cy="73" rx="0.32" ry="0.45" fill="#fff" opacity="0.115"/><ellipse cx="88" cy="104" rx="0.42000000000000004" ry="0.45" fill="#fff" opacity="0.07"/><ellipse cx="15" cy="15" rx="0.22" ry="0.45" fill="#fff" opacity="0.085"/><ellipse cx="62" cy="46" rx="0.32" ry="0.45" fill="#fff" opacity="0.1"/><ellipse cx="109" cy="77" rx="0.42000000000000004" ry="0.45" fill="#fff" opacity="0.115"/><ellipse cx="36" cy="108" rx="0.22" ry="0.45" fill="#fff" opacity="0.07"/><ellipse cx="83" cy="19" rx="0.32" ry="0.45" fill="#fff" opacity="0.085"/><ellipse cx="10" cy="50" rx="0.42000000000000004" ry="0.45" fill="#fff" opacity="0.1"/><ellipse cx="57" cy="81" rx="0.22" ry="0.45" fill="#fff" opacity="0.115"/><ellipse cx="104" cy="112" rx="0.32" ry="0.45" fill="#fff" opacity="0.07"/><ellipse cx="31" cy="23" rx="0.42000000000000004" ry="0.45" fill="#fff" opacity="0.085"/><ellipse cx="78" cy="54" rx="0.22" ry="0.45" fill="#fff" opacity="0.1"/><ellipse cx="5" cy="85" rx="0.32" ry="0.45" fill="#fff" opacity="0.115"/><ellipse cx="52" cy="116" rx="0.42000000000000004" ry="0.45" fill="#fff" opacity="0.07"/><ellipse cx="99" cy="27" rx="0.22" ry="0.45" fill="#fff" opacity="0.085"/><ellipse cx="26" cy="58" rx="0.32" ry="0.45" fill="#fff" opacity="0.1"/><ellipse cx="73" cy="89" rx="0.42000000000000004" ry="0.45" fill="#fff" opacity="0.115"/><ellipse cx="0" cy="0" rx="0.22" ry="0.45" fill="#fff" opacity="0.07"/><ellipse cx="47" cy="31" rx="0.32" ry="0.45" fill="#fff" opacity="0.085"/><ellipse cx="94" cy="62" rx="0.42000000000000004" ry="0.45" fill="#fff" opacity="0.1"/><ellipse cx="21" cy="93" rx="0.22" ry="0.45" fill="#fff" opacity="0.115"/><ellipse cx="68" cy="4" rx="0.32" ry="0.45" fill="#fff" opacity="0.07"/><ellipse cx="115" cy="35" rx="0.42000000000000004" ry="0.45" fill="#fff" opacity="0.085"/><ellipse cx="42" cy="66" rx="0.22" ry="0.45" fill="#fff" opacity="0.1"/><ellipse cx="89" cy="97" rx="0.32" ry="0.45" fill="#fff" opacity="0.115"/><ellipse cx="16" cy="8" rx="0.42000000000000004" ry="0.45" fill="#fff" opacity="0.07"/><ellipse cx="63" cy="39" rx="0.22" ry="0.45" fill="#fff" opacity="0.085"/><ellipse cx="110" cy="70" rx="0.32" ry="0.45" fill="#fff" opacity="0.1"/><ellipse cx="37" cy="101" rx="0.42000000000000004" ry="0.45" fill="#fff" opacity="0.115"/><ellipse cx="84" cy="12" rx="0.22" ry="0.45" fill="#fff" opacity="0.07"/><ellipse cx="11" cy="43" rx="0.32" ry="0.45" fill="#fff" opacity="0.085"/><ellipse cx="58" cy="74" rx="0.42000000000000004" ry="0.45" fill="#fff" opacity="0.1"/><ellipse cx="105" cy="105" rx="0.22" ry="0.45" fill="#fff" opacity="0.115"/><ellipse cx="32" cy="16" rx="0.32" ry="0.45" fill="#fff" opacity="0.07"/><ellipse cx="79" cy="47" rx="0.42000000000000004" ry="0.45" fill="#fff" opacity="0.085"/><ellipse cx="6" cy="78" rx="0.22" ry="0.45" fill="#fff" opacity="0.1"/><ellipse cx="53" cy="109" rx="0.32" ry="0.45" fill="#fff" opacity="0.115"/><ellipse cx="100" cy="20" rx="0.42000000000000004" ry="0.45" fill="#fff" opacity="0.07"/><ellipse cx="27" cy="51" rx="0.22" ry="0.45" fill="#fff" opacity="0.085"/><ellipse cx="74" cy="82" rx="0.32" ry="0.45" fill="#fff" opacity="0.1"/><ellipse cx="1" cy="113" rx="0.42000000000000004" ry="0.45" fill="#fff" opacity="0.115"/><ellipse cx="48" cy="24" rx="0.22" ry="0.45" fill="#fff" opacity="0.07"/><ellipse cx="95" cy="55" rx="0.32" ry="0.45" fill="#fff" opacity="0.085"/><ellipse cx="22" cy="86" rx="0.42000000000000004" ry="0.45" fill="#fff" opacity="0.1"/><ellipse cx="69" cy="117" rx="0.22" ry="0.45" fill="#fff" opacity="0.115"/><ellipse cx="116" cy="28" rx="0.32" ry="0.45" fill="#fff" opacity="0.07"/><ellipse cx="43" cy="59" rx="0.42000000000000004" ry="0.45" fill="#fff" opacity="0.085"/><ellipse cx="90" cy="90" rx="0.22" ry="0.45" fill="#fff" opacity="0.1"/><ellipse cx="17" cy="1" rx="0.32" ry="0.45" fill="#fff" opacity="0.115"/><ellipse cx="64" cy="32" rx="0.42000000000000004" ry="0.45" fill="#fff" opacity="0.07"/><ellipse cx="111" cy="63" rx="0.22" ry="0.45" fill="#fff" opacity="0.085"/><ellipse cx="38" cy="94" rx="0.32" ry="0.45" fill="#fff" opacity="0.1"/><ellipse cx="85" cy="5" rx="0.42000000000000004" ry="0.45" fill="#fff" opacity="0.115"/><ellipse cx="12" cy="36" rx="0.22" ry="0.45" fill="#fff" opacity="0.07"/><ellipse cx="59" cy="67" rx="0.32" ry="0.45" fill="#fff" opacity="0.085"/><ellipse cx="106" cy="98" rx="0.42000000000000004" ry="0.45" fill="#fff" opacity="0.1"/><ellipse cx="33" cy="9" rx="0.22" ry="0.45" fill="#fff" opacity="0.115"/><ellipse cx="80" cy="40" rx="0.32" ry="0.45" fill="#fff" opacity="0.07"/><ellipse cx="7" cy="71" rx="0.42000000000000004" ry="0.45" fill="#fff" opacity="0.085"/><ellipse cx="54" cy="102" rx="0.22" ry="0.45" fill="#fff" opacity="0.1"/><ellipse cx="101" cy="13" rx="0.32" ry="0.45" fill="#fff" opacity="0.115"/><ellipse cx="28" cy="44" rx="0.42000000000000004" ry="0.45" fill="#fff" opacity="0.07"/><ellipse cx="75" cy="75" rx="0.22" ry="0.45" fill="#fff" opacity="0.085"/><ellipse cx="2" cy="106" rx="0.32" ry="0.45" fill="#fff" opacity="0.1"/><ellipse cx="49" cy="17" rx="0.42000000000000004" ry="0.45" fill="#fff" opacity="0.115"/><ellipse cx="96" cy="48" rx="0.22" ry="0.45" fill="#fff" opacity="0.07"/><ellipse cx="23" cy="79" rx="0.32" ry="0.45" fill="#fff" opacity="0.085"/><ellipse cx="70" cy="110" rx="0.42000000000000004" ry="0.45" fill="#fff" opacity="0.1"/><ellipse cx="117" cy="21" rx="0.22" ry="0.45" fill="#fff" opacity="0.115"/><ellipse cx="44" cy="52" rx="0.32" ry="0.45" fill="#fff" opacity="0.07"/><ellipse cx="91" cy="83" rx="0.42000000000000004" ry="0.45" fill="#fff" opacity="0.085"/><ellipse cx="18" cy="114" rx="0.22" ry="0.45" fill="#fff" opacity="0.1"/><ellipse cx="65" cy="25" rx="0.32" ry="0.45" fill="#fff" opacity="0.115"/><ellipse cx="112" cy="56" rx="0.42000000000000004" ry="0.45" fill="#fff" opacity="0.07"/><ellipse cx="39" cy="87" rx="0.22" ry="0.45" fill="#fff" opacity="0.085"/><ellipse cx="86" cy="118" rx="0.32" ry="0.45" fill="#fff" opacity="0.1"/><ellipse cx="13" cy="29" rx="0.42000000000000004" ry="0.45" fill="#fff" opacity="0.115"/><ellipse cx="60" cy="60" rx="0.22" ry="0.45" fill="#fff" opacity="0.07"/><ellipse cx="107" cy="91" rx="0.32" ry="0.45" fill="#fff" opacity="0.085"/><ellipse cx="34" cy="2" rx="0.42000000000000004" ry="0.45" fill="#fff" opacity="0.1"/><ellipse cx="81" cy="33" rx="0.22" ry="0.45" fill="#fff" opacity="0.115"/><ellipse cx="8" cy="64" rx="0.32" ry="0.45" fill="#fff" opacity="0.07"/><ellipse cx="55" cy="95" rx="0.42000000000000004" ry="0.45" fill="#fff" opacity="0.085"/><ellipse cx="102" cy="6" rx="0.22" ry="0.45" fill="#fff" opacity="0.1"/><ellipse cx="29" cy="37" rx="0.32" ry="0.45" fill="#fff" opacity="0.115"/><ellipse cx="76" cy="68" rx="0.42000000000000004" ry="0.45" fill="#fff" opacity="0.07"/><ellipse cx="3" cy="99" rx="0.22" ry="0.45" fill="#fff" opacity="0.085"/><ellipse cx="50" cy="10" rx="0.32" ry="0.45" fill="#fff" opacity="0.1"/><ellipse cx="97" cy="41" rx="0.42000000000000004" ry="0.45" fill="#fff" opacity="0.115"/><ellipse cx="24" cy="72" rx="0.22" ry="0.45" fill="#fff" opacity="0.07"/><ellipse cx="71" cy="103" rx="0.32" ry="0.45" fill="#fff" opacity="0.085"/><ellipse cx="118" cy="14" rx="0.42000000000000004" ry="0.45" fill="#fff" opacity="0.1"/><ellipse cx="45" cy="45" rx="0.22" ry="0.45" fill="#fff" opacity="0.115"/><ellipse cx="92" cy="76" rx="0.32" ry="0.45" fill="#fff" opacity="0.07"/><ellipse cx="19" cy="107" rx="0.42000000000000004" ry="0.45" fill="#fff" opacity="0.085"/><ellipse cx="66" cy="18" rx="0.22" ry="0.45" fill="#fff" opacity="0.1"/><ellipse cx="113" cy="49" rx="0.32" ry="0.45" fill="#fff" opacity="0.115"/><ellipse cx="40" cy="80" rx="0.42000000000000004" ry="0.45" fill="#fff" opacity="0.07"/><ellipse cx="87" cy="111" rx="0.22" ry="0.45" fill="#fff" opacity="0.085"/><ellipse cx="14" cy="22" rx="0.32" ry="0.45" fill="#fff" opacity="0.1"/><ellipse cx="61" cy="53" rx="0.42000000000000004" ry="0.45" fill="#fff" opacity="0.115"/><ellipse cx="108" cy="84" rx="0.22" ry="0.45" fill="#fff" opacity="0.07"/><ellipse cx="35" cy="115" rx="0.32" ry="0.45" fill="#fff" opacity="0.085"/><ellipse cx="82" cy="26" rx="0.42000000000000004" ry="0.45" fill="#fff" opacity="0.1"/><ellipse cx="9" cy="57" rx="0.22" ry="0.45" fill="#fff" opacity="0.115"/><ellipse cx="56" cy="88" rx="0.32" ry="0.45" fill="#fff" opacity="0.07"/><ellipse cx="103" cy="119" rx="0.42000000000000004" ry="0.45" fill="#fff" opacity="0.085"/><ellipse cx="30" cy="30" rx="0.22" ry="0.45" fill="#fff" opacity="0.1"/><ellipse cx="77" cy="61" rx="0.32" ry="0.45" fill="#fff" opacity="0.115"/><ellipse cx="4" cy="92" rx="0.42000000000000004" ry="0.45" fill="#fff" opacity="0.07"/><ellipse cx="51" cy="3" rx="0.22" ry="0.45" fill="#fff" opacity="0.085"/><ellipse cx="98" cy="34" rx="0.32" ry="0.45" fill="#fff" opacity="0.1"/><ellipse cx="25" cy="65" rx="0.42000000000000004" ry="0.45" fill="#fff" opacity="0.115"/><ellipse cx="72" cy="96" rx="0.22" ry="0.45" fill="#fff" opacity="0.07"/><ellipse cx="119" cy="7" rx="0.32" ry="0.45" fill="#fff" opacity="0.085"/><ellipse cx="46" cy="38" rx="0.42000000000000004" ry="0.45" fill="#fff" opacity="0.1"/><ellipse cx="93" cy="69" rx="0.22" ry="0.45" fill="#fff" opacity="0.115"/><ellipse cx="20" cy="100" rx="0.32" ry="0.45" fill="#fff" opacity="0.07"/><ellipse cx="67" cy="11" rx="0.42000000000000004" ry="0.45" fill="#fff" opacity="0.085"/><ellipse cx="114" cy="42" rx="0.22" ry="0.45" fill="#fff" opacity="0.1"/><ellipse cx="41" cy="73" rx="0.32" ry="0.45" fill="#fff" opacity="0.115"/><ellipse cx="88" cy="104" rx="0.42000000000000004" ry="0.45" fill="#fff" opacity="0.07"/><ellipse cx="15" cy="15" rx="0.22" ry="0.45" fill="#fff" opacity="0.085"/><ellipse cx="62" cy="46" rx="0.32" ry="0.45" fill="#fff" opacity="0.1"/><ellipse cx="109" cy="77" rx="0.42000000000000004" ry="0.45" fill="#fff" opacity="0.115"/><ellipse cx="36" cy="108" rx="0.22" ry="0.45" fill="#fff" opacity="0.07"/><ellipse cx="83" cy="19" rx="0.32" ry="0.45" fill="#fff" opacity="0.085"/><ellipse cx="10" cy="50" rx="0.42000000000000004" ry="0.45" fill="#fff" opacity="0.1"/><ellipse cx="57" cy="81" rx="0.22" ry="0.45" fill="#fff" opacity="0.115"/><ellipse cx="104" cy="112" rx="0.32" ry="0.45" fill="#fff" opacity="0.07"/><ellipse cx="31" cy="23" rx="0.42000000000000004" ry="0.45" fill="#fff" opacity="0.085"/><ellipse cx="78" cy="54" rx="0.22" ry="0.45" fill="#fff" opacity="0.1"/><ellipse cx="5" cy="85" rx="0.32" ry="0.45" fill="#fff" opacity="0.115"/><ellipse cx="52" cy="116" rx="0.42000000000000004" ry="0.45" fill="#fff" opacity="0.07"/><ellipse cx="99" cy="27" rx="0.22" ry="0.45" fill="#fff" opacity="0.085"/><ellipse cx="26" cy="58" rx="0.32" ry="0.45" fill="#fff" opacity="0.1"/><ellipse cx="73" cy="89" rx="0.42000000000000004" ry="0.45" fill="#fff" opacity="0.115"/><ellipse cx="0" cy="0" rx="0.22" ry="0.45" fill="#fff" opacity="0.07"/><ellipse cx="47" cy="31" rx="0.32" ry="0.45" fill="#fff" opacity="0.085"/><ellipse cx="94" cy="62" rx="0.42000000000000004" ry="0.45" fill="#fff" opacity="0.1"/><ellipse cx="21" cy="93" rx="0.22" ry="0.45" fill="#fff" opacity="0.115"/><ellipse cx="68" cy="4" rx="0.32" ry="0.45" fill="#fff" opacity="0.07"/><ellipse cx="115" cy="35" rx="0.42000000000000004" ry="0.45" fill="#fff" opacity="0.085"/><ellipse cx="42" cy="66" rx="0.22" ry="0.45" fill="#fff" opacity="0.1"/><ellipse cx="89" cy="97" rx="0.32" ry="0.45" fill="#fff" opacity="0.115"/><ellipse cx="16" cy="8" rx="0.42000000000000004" ry="0.45" fill="#fff" opacity="0.07"/><ellipse cx="63" cy="39" rx="0.22" ry="0.45" fill="#fff" opacity="0.085"/><ellipse cx="110" cy="70" rx="0.32" ry="0.45" fill="#fff" opacity="0.1"/><ellipse cx="37" cy="101" rx="0.42000000000000004" ry="0.45" fill="#fff" opacity="0.115"/><ellipse cx="84" cy="12" rx="0.22" ry="0.45" fill="#fff" opacity="0.07"/><ellipse cx="11" cy="43" rx="0.32" ry="0.45" fill="#fff" opacity="0.085"/><ellipse cx="58" cy="74" rx="0.42000000000000004" ry="0.45" fill="#fff" opacity="0.1"/><ellipse cx="105" cy="105" rx="0.22" ry="0.45" fill="#fff" opacity="0.115"/><ellipse cx="32" cy="16" rx="0.32" ry="0.45" fill="#fff" opacity="0.07"/><ellipse cx="79" cy="47" rx="0.42000000000000004" ry="0.45" fill="#fff" opacity="0.085"/><ellipse cx="6" cy="78" rx="0.22" ry="0.45" fill="#fff" opacity="0.1"/><ellipse cx="53" cy="109" rx="0.32" ry="0.45" fill="#fff" opacity="0.115"/><ellipse cx="100" cy="20" rx="0.42000000000000004" ry="0.45" fill="#fff" opacity="0.07"/><ellipse cx="27" cy="51" rx="0.22" ry="0.45" fill="#fff" opacity="0.085"/><ellipse cx="74" cy="82" rx="0.32" ry="0.45" fill="#fff" opacity="0.1"/><ellipse cx="1" cy="113" rx="0.42000000000000004" ry="0.45" fill="#fff" opacity="0.115"/><ellipse cx="48" cy="24" rx="0.22" ry="0.45" fill="#fff" opacity="0.07"/><ellipse cx="95" cy="55" rx="0.32" ry="0.45" fill="#fff" opacity="0.085"/><ellipse cx="22" cy="86" rx="0.42000000000000004" ry="0.45" fill="#fff" opacity="0.1"/><ellipse cx="69" cy="117" rx="0.22" ry="0.45" fill="#fff" opacity="0.115"/><ellipse cx="116" cy="28" rx="0.32" ry="0.45" fill="#fff" opacity="0.07"/><ellipse cx="43" cy="59" rx="0.42000000000000004" ry="0.45" fill="#fff" opacity="0.085"/><ellipse cx="90" cy="90" rx="0.22" ry="0.45" fill="#fff" opacity="0.1"/><ellipse cx="17" cy="1" rx="0.32" ry="0.45" fill="#fff" opacity="0.115"/><ellipse cx="64" cy="32" rx="0.42000000000000004" ry="0.45" fill="#fff" opacity="0.07"/><ellipse cx="111" cy="63" rx="0.22" ry="0.45" fill="#fff" opacity="0.085"/><ellipse cx="38" cy="94" rx="0.32" ry="0.45" fill="#fff" opacity="0.1"/><ellipse cx="85" cy="5" rx="0.42000000000000004" ry="0.45" fill="#fff" opacity="0.115"/><ellipse cx="12" cy="36" rx="0.22" ry="0.45" fill="#fff" opacity="0.07"/><ellipse cx="59" cy="67" rx="0.32" ry="0.45" fill="#fff" opacity="0.085"/><ellipse cx="106" cy="98" rx="0.42000000000000004" ry="0.45" fill="#fff" opacity="0.1"/><ellipse cx="33" cy="9" rx="0.22" ry="0.45" fill="#fff" opacity="0.115"/><ellipse cx="80" cy="40" rx="0.32" ry="0.45" fill="#fff" opacity="0.07"/><ellipse cx="7" cy="71" rx="0.42000000000000004" ry="0.45" fill="#fff" opacity="0.085"/><ellipse cx="54" cy="102" rx="0.22" ry="0.45" fill="#fff" opacity="0.1"/><ellipse cx="101" cy="13" rx="0.32" ry="0.45" fill="#fff" opacity="0.115"/><ellipse cx="28" cy="44" rx="0.42000000000000004" ry="0.45" fill="#fff" opacity="0.07"/><ellipse cx="75" cy="75" rx="0.22" ry="0.45" fill="#fff" opacity="0.085"/><ellipse cx="2" cy="106" rx="0.32" ry="0.45" fill="#fff" opacity="0.1"/><ellipse cx="49" cy="17" rx="0.42000000000000004" ry="0.45" fill="#fff" opacity="0.115"/><ellipse cx="96" cy="48" rx="0.22" ry="0.45" fill="#fff" opacity="0.07"/><ellipse cx="23" cy="79" rx="0.32" ry="0.45" fill="#fff" opacity="0.085"/><ellipse cx="70" cy="110" rx="0.42000000000000004" ry="0.45" fill="#fff" opacity="0.1"/><ellipse cx="117" cy="21" rx="0.22" ry="0.45" fill="#fff" opacity="0.115"/><ellipse cx="44" cy="52" rx="0.32" ry="0.45" fill="#fff" opacity="0.07"/><ellipse cx="91" cy="83" rx="0.42000000000000004" ry="0.45" fill="#fff" opacity="0.085"/><ellipse cx="18" cy="114" rx="0.22" ry="0.45" fill="#fff" opacity="0.1"/><ellipse cx="65" cy="25" rx="0.32" ry="0.45" fill="#fff" opacity="0.115"/><ellipse cx="112" cy="56" rx="0.42000000000000004" ry="0.45" fill="#fff" opacity="0.07"/><ellipse cx="39" cy="87" rx="0.22" ry="0.45" fill="#fff" opacity="0.085"/><ellipse cx="86" cy="118" rx="0.32" ry="0.45" fill="#fff" opacity="0.1"/><ellipse cx="13" cy="29" rx="0.42000000000000004" ry="0.45" fill="#fff" opacity="0.115"/><ellipse cx="60" cy="60" rx="0.22" ry="0.45" fill="#fff" opacity="0.07"/><ellipse cx="107" cy="91" rx="0.32" ry="0.45" fill="#fff" opacity="0.085"/><ellipse cx="34" cy="2" rx="0.42000000000000004" ry="0.45" fill="#fff" opacity="0.1"/><ellipse cx="81" cy="33" rx="0.22" ry="0.45" fill="#fff" opacity="0.115"/><ellipse cx="8" cy="64" rx="0.32" ry="0.45" fill="#fff" opacity="0.07"/><ellipse cx="55" cy="95" rx="0.42000000000000004" ry="0.45" fill="#fff" opacity="0.085"/><ellipse cx="102" cy="6" rx="0.22" ry="0.45" fill="#fff" opacity="0.1"/><ellipse cx="29" cy="37" rx="0.32" ry="0.45" fill="#fff" opacity="0.115"/><ellipse cx="76" cy="68" rx="0.42000000000000004" ry="0.45" fill="#fff" opacity="0.07"/><ellipse cx="3" cy="99" rx="0.22" ry="0.45" fill="#fff" opacity="0.085"/><ellipse cx="50" cy="10" rx="0.32" ry="0.45" fill="#fff" opacity="0.1"/><ellipse cx="97" cy="41" rx="0.42000000000000004" ry="0.45" fill="#fff" opacity="0.115"/><ellipse cx="24" cy="72" rx="0.22" ry="0.45" fill="#fff" opacity="0.07"/><ellipse cx="71" cy="103" rx="0.32" ry="0.45" fill="#fff" opacity="0.085"/><ellipse cx="118" cy="14" rx="0.42000000000000004" ry="0.45" fill="#fff" opacity="0.1"/><ellipse cx="45" cy="45" rx="0.22" ry="0.45" fill="#fff" opacity="0.115"/><ellipse cx="92" cy="76" rx="0.32" ry="0.45" fill="#fff" opacity="0.07"/><ellipse cx="19" cy="107" rx="0.42000000000000004" ry="0.45" fill="#fff" opacity="0.085"/><ellipse cx="66" cy="18" rx="0.22" ry="0.45" fill="#fff" opacity="0.1"/><ellipse cx="113" cy="49" rx="0.32" ry="0.45" fill="#fff" opacity="0.115"/><ellipse cx="40" cy="80" rx="0.42000000000000004" ry="0.45" fill="#fff" opacity="0.07"/><ellipse cx="87" cy="111" rx="0.22" ry="0.45" fill="#fff" opacity="0.085"/><ellipse cx="14" cy="22" rx="0.32" ry="0.45" fill="#fff" opacity="0.1"/><ellipse cx="61" cy="53" rx="0.42000000000000004" ry="0.45" fill="#fff" opacity="0.115"/><ellipse cx="108" cy="84" rx="0.22" ry="0.45" fill="#fff" opacity="0.07"/><ellipse cx="35" cy="115" rx="0.32" ry="0.45" fill="#fff" opacity="0.085"/><ellipse cx="82" cy="26" rx="0.42000000000000004" ry="0.45" fill="#fff" opacity="0.1"/><ellipse cx="9" cy="57" rx="0.22" ry="0.45" fill="#fff" opacity="0.115"/><ellipse cx="56" cy="88" rx="0.32" ry="0.45" fill="#fff" opacity="0.07"/><ellipse cx="103" cy="119" rx="0.42000000000000004" ry="0.45" fill="#fff" opacity="0.085"/><ellipse cx="30" cy="30" rx="0.22" ry="0.45" fill="#fff" opacity="0.1"/><ellipse cx="77" cy="61" rx="0.32" ry="0.45" fill="#fff" opacity="0.115"/><ellipse cx="4" cy="92" rx="0.42000000000000004" ry="0.45" fill="#fff" opacity="0.07"/><ellipse cx="51" cy="3" rx="0.22" ry="0.45" fill="#fff" opacity="0.085"/><ellipse cx="98" cy="34" rx="0.32" ry="0.45" fill="#fff" opacity="0.1"/><ellipse cx="25" cy="65" rx="0.42000000000000004" ry="0.45" fill="#fff" opacity="0.115"/><ellipse cx="72" cy="96" rx="0.22" ry="0.45" fill="#fff" opacity="0.07"/><ellipse cx="119" cy="7" rx="0.32" ry="0.45" fill="#fff" opacity="0.085"/><ellipse cx="46" cy="38" rx="0.42000000000000004" ry="0.45" fill="#fff" opacity="0.1"/><ellipse cx="93" cy="69" rx="0.22" ry="0.45" fill="#fff" opacity="0.115"/><ellipse cx="20" cy="100" rx="0.32" ry="0.45" fill="#fff" opacity="0.07"/><ellipse cx="67" cy="11" rx="0.42000000000000004" ry="0.45" fill="#fff" opacity="0.085"/><ellipse cx="114" cy="42" rx="0.22" ry="0.45" fill="#fff" opacity="0.1"/><ellipse cx="41" cy="73" rx="0.32" ry="0.45" fill="#fff" opacity="0.115"/><ellipse cx="88" cy="104" rx="0.42000000000000004" ry="0.45" fill="#fff" opacity="0.07"/><ellipse cx="15" cy="15" rx="0.22" ry="0.45" fill="#fff" opacity="0.085"/><ellipse cx="62" cy="46" rx="0.32" ry="0.45" fill="#fff" opacity="0.1"/><ellipse cx="109" cy="77" rx="0.42000000000000004" ry="0.45" fill="#fff" opacity="0.115"/><ellipse cx="36" cy="108" rx="0.22" ry="0.45" fill="#fff" opacity="0.07"/><ellipse cx="83" cy="19" rx="0.32" ry="0.45" fill="#fff" opacity="0.085"/><ellipse cx="10" cy="50" rx="0.42000000000000004" ry="0.45" fill="#fff" opacity="0.1"/><ellipse cx="57" cy="81" rx="0.22" ry="0.45" fill="#fff" opacity="0.115"/><ellipse cx="104" cy="112" rx="0.32" ry="0.45" fill="#fff" opacity="0.07"/><ellipse cx="31" cy="23" rx="0.42000000000000004" ry="0.45" fill="#fff" opacity="0.085"/><ellipse cx="78" cy="54" rx="0.22" ry="0.45" fill="#fff" opacity="0.1"/><ellipse cx="5" cy="85" rx="0.32" ry="0.45" fill="#fff" opacity="0.115"/><ellipse cx="52" cy="116" rx="0.42000000000000004" ry="0.45" fill="#fff" opacity="0.07"/><ellipse cx="99" cy="27" rx="0.22" ry="0.45" fill="#fff" opacity="0.085"/><ellipse cx="26" cy="58" rx="0.32" ry="0.45" fill="#fff" opacity="0.1"/><ellipse cx="73" cy="89" rx="0.42000000000000004" ry="0.45" fill="#fff" opacity="0.115"/></pattern><clipPath id="muse-pigeon-clip"><path d="M35 134C22 110 24 81 39 62C31 33 47 19 76 21C105 18 126 44 117 72C133 97 132 121 119 140C97 154 54 156 35 134Z" fill="white" /></clipPath></defs><g class="pal-body"><path d="M53 143L50 164L39 168Q32 172 42 174L63 173L68 166L66 144Z" fill="#bf6523" /><path d="M93 143L94 163L106 166Q119 174 108 176L86 175L81 166L81 145Z" fill="#bf6523" /><path d="M35 134C22 110 24 81 39 62C31 33 47 19 76 21C105 18 126 44 117 72C133 97 132 121 119 140C97 154 54 156 35 134Z" fill="#A6A5AB" /><path d="M35 134C22 110 24 81 39 62C31 33 47 19 76 21C105 18 126 44 117 72C133 97 132 121 119 140C97 154 54 156 35 134Z" fill="url(#muse-pigeon-fur)" /><path d="M35 134C22 110 24 81 39 62C31 33 47 19 76 21C105 18 126 44 117 72C133 97 132 121 119 140C97 154 54 156 35 134Z" fill="url(#muse-pigeon-shade)" /><g clip-path="url(#muse-pigeon-clip)"><path d="M35 134C22 110 24 81 39 62C31 33 47 19 76 21C105 18 126 44 117 72C133 97 132 121 119 140C97 154 54 156 35 134Z" fill="url(#muse-pigeon-fleece)" /></g><path d="M47 38Q40 13 54 14L64 24Q61 8 72 7L80 24Q94 9 102 20L91 32Z" fill="#8b8991" /><path d="M36 77Q18 95 30 126Q34 137 45 131L54 104Z" fill="#7c7d83" /><path d="M114 79Q140 101 124 133L110 126L101 102Z" fill="#797a81" /><path d="M29 98Q41 110 44 121M28 109L39 129M124 103L114 121" fill="none" stroke="#b1b0b4" stroke-width="2" stroke-linecap="round" stroke-linejoin="round"/><g class="pal-eyes"><g class="pal-pupils"><ellipse cx="59" cy="58" rx="7" ry="8" fill="#28262b" /><ellipse cx="97" cy="54" rx="7" ry="8" fill="#28262b" /></g><path d="M51 52q8-9 16 2L67 57L51 55Z" fill="#a4a1a7" /><path d="M88 48q8-8 17 1L105 54L88 52Z" fill="#a4a1a7" /></g><ellipse cx="77" cy="78" rx="14" ry="11" fill="#e79838" /><path d="M65 80Q77 94 90 77Q79 86 65 80Z" fill="#943c1f" /><g class="pal-grin"><path d="M66 78Q77 86 89 77Q84 92 76 91Q69 89 66 78Z" fill="#6d3624" /></g><path d="M49 98q-2 6 2 9" fill="none" stroke="#ddd9da" stroke-width="0.8" stroke-linecap="round" stroke-linejoin="round"/><path d="M66 98q-2 6 2 9" fill="none" stroke="#ddd9da" stroke-width="0.8" stroke-linecap="round" stroke-linejoin="round"/><path d="M83 98q-2 6 2 9" fill="none" stroke="#ddd9da" stroke-width="0.8" stroke-linecap="round" stroke-linejoin="round"/><path d="M100 98q-2 6 2 9" fill="none" stroke="#ddd9da" stroke-width="0.8" stroke-linecap="round" stroke-linejoin="round"/><path d="M61 98q-2 6 2 9" fill="none" stroke="#ddd9da" stroke-width="0.8" stroke-linecap="round" stroke-linejoin="round"/><path d="M78 98q-2 6 2 9" fill="none" stroke="#ddd9da" stroke-width="0.8" stroke-linecap="round" stroke-linejoin="round"/><path d="M95 108q-2 6 2 9" fill="none" stroke="#ddd9da" stroke-width="0.8" stroke-linecap="round" stroke-linejoin="round"/><path d="M56 108q-2 6 2 9" fill="none" stroke="#ddd9da" stroke-width="0.8" stroke-linecap="round" stroke-linejoin="round"/><path d="M73 108q-2 6 2 9" fill="none" stroke="#ddd9da" stroke-width="0.8" stroke-linecap="round" stroke-linejoin="round"/><path d="M90 108q-2 6 2 9" fill="none" stroke="#ddd9da" stroke-width="0.8" stroke-linecap="round" stroke-linejoin="round"/><path d="M51 108q-2 6 2 9" fill="none" stroke="#ddd9da" stroke-width="0.8" stroke-linecap="round" stroke-linejoin="round"/><path d="M68 108q-2 6 2 9" fill="none" stroke="#ddd9da" stroke-width="0.8" stroke-linecap="round" stroke-linejoin="round"/><path d="M85 118q-2 6 2 9" fill="none" stroke="#ddd9da" stroke-width="0.8" stroke-linecap="round" stroke-linejoin="round"/><path d="M102 118q-2 6 2 9" fill="none" stroke="#ddd9da" stroke-width="0.8" stroke-linecap="round" stroke-linejoin="round"/><path d="M63 118q-2 6 2 9" fill="none" stroke="#ddd9da" stroke-width="0.8" stroke-linecap="round" stroke-linejoin="round"/><path d="M80 118q-2 6 2 9" fill="none" stroke="#ddd9da" stroke-width="0.8" stroke-linecap="round" stroke-linejoin="round"/><path d="M97 118q-2 6 2 9" fill="none" stroke="#ddd9da" stroke-width="0.8" stroke-linecap="round" stroke-linejoin="round"/><path d="M58 118q-2 6 2 9" fill="none" stroke="#ddd9da" stroke-width="0.8" stroke-linecap="round" stroke-linejoin="round"/><path d="M75 128q-2 6 2 9" fill="none" stroke="#ddd9da" stroke-width="0.8" stroke-linecap="round" stroke-linejoin="round"/><path d="M92 128q-2 6 2 9" fill="none" stroke="#ddd9da" stroke-width="0.8" stroke-linecap="round" stroke-linejoin="round"/><path d="M53 128q-2 6 2 9" fill="none" stroke="#ddd9da" stroke-width="0.8" stroke-linecap="round" stroke-linejoin="round"/><path d="M70 128q-2 6 2 9" fill="none" stroke="#ddd9da" stroke-width="0.8" stroke-linecap="round" stroke-linejoin="round"/><path d="M87 128q-2 6 2 9" fill="none" stroke="#ddd9da" stroke-width="0.8" stroke-linecap="round" stroke-linejoin="round"/><path d="M104 128q-2 6 2 9" fill="none" stroke="#ddd9da" stroke-width="0.8" stroke-linecap="round" stroke-linejoin="round"/></g></svg>